<svg xmlns="http://www.w3.org/2000/svg" viewBox="0 0 64 64">
  <rect width="64" height="64" rx="14" fill="#1a1a1a"/>
  <rect width="64" height="64" rx="14" fill="url(#ff-bg)"/>
  <defs>
    <linearGradient id="ff-bg" x1="0" y1="0" x2="1" y2="1">
      <stop offset="0%" stop-color="#FF6B00"/>
      <stop offset="100%" stop-color="#FF1A00"/>
    </linearGradient>
    <linearGradient id="ff-flame" x1="0.5" y1="0" x2="0.5" y2="1">
      <stop offset="0%" stop-color="#FFE566"/>
      <stop offset="50%" stop-color="#FF8C00"/>
      <stop offset="100%" stop-color="#CC1100"/>
    </linearGradient>
  </defs>
  <!-- Flame body -->
  <path d="M32 10 C28 18 20 22 22 32 C23 37 27 40 32 41 C37 40 41 37 42 32 C44 22 36 18 32 10Z" fill="url(#ff-flame)"/>
  <!-- Inner flame highlight -->
  <path d="M32 18 C30 23 26 26 27 31 C28 34 30 36 32 37 C34 36 36 34 37 31 C38 26 34 23 32 18Z" fill="#FFE566" opacity="0.7"/>
  <!-- Bottom base / ground sparks -->
  <ellipse cx="32" cy="46" rx="10" ry="3" fill="#FF4400" opacity="0.5"/>
  <rect x="28" y="43" width="8" height="4" rx="2" fill="#FF6B00"/>
  <!-- Two side sparks -->
  <path d="M22 34 L18 28 L22 30Z" fill="#FFD700"/>
  <path d="M42 34 L46 28 L42 30Z" fill="#FFD700"/>
  <!-- FF text -->
  <text x="32" y="57" font-family="Arial Black, sans-serif" font-size="9" font-weight="900" fill="white" text-anchor="middle" letter-spacing="1">FF</text>
</svg>
